<svg version="1" xmlns="http://www.w3.org/2000/svg" width="933.333" height="933.333" viewBox="0 0 700.000000 700.000000"><path d="M441 17.2c-6.7 4.6-22.1 16.2-25.5 19.3-24.1 21.3-43.3 46.1-56.5 73-9.1 18.6-13 35.4-12.5 54.8.3 9.5 1.3 19.4 2.1 20.8.2.3.6 2.1.9 4 1.9 10.5 10 28.9 17.9 40.5l4.2 6.1 3.3-1.8c1.8-1 3.5-1.9 3.7-2.1.2-.3-.6-5.1-1.7-10.9-8.3-42.6 10.5-77.7 55.1-102.7 6.1-3.4 27-12.4 27-11.6 0 .2 1-.1 2.3-.8 1.2-.6 7-2.3 12.9-3.7l10.7-2.6-14-32c-7.7-17.6-14.6-33.4-15.4-35-.7-1.7-2.5-5.7-3.9-9-4.7-10.7-4.4-10.6-10.6-6.3z"/><path d="M336.7 73.3c-39.3 27-62.5 64.8-70.3 114.6-1.3 8.6-1.3 42.2 0 48.6.3 1.6.9 4.6 1.2 6.5.3 1.9.8 4.6 1 6 .3 1.4 1.4 5.9 2.6 10 5.9 21.4 16.2 42.5 29.6 61 4.4 6 20.8 25.8 23.2 28 2.4 2.1 23 31.3 23 32.5 0 .2 1.7 3.3 3.8 6.7 13.4 22.4 25.9 58.1 29.7 85.3.3 2.2.8 4.9 1 6.1 2.1 9.9 2.2 59.8.1 63.2-.2.4-.7 3-1 5.8-.3 2.9-.7 6.2-1 7.5-7.5 33.8-14.8 54.3-28.1 79.6L345 647l2.2 2c1.2 1.1 2.7 2 3.3 2 .6 0 5.1-2.7 10.1-6.1 24.2-16.5 44-36.4 60.3-60.7 6.1-8.9 17.5-30.1 20.1-37.2 7.3-19.9 11-31.9 12.7-41 .2-1.4.8-4.3 1.3-6.6.5-2.2 1.2-6.9 1.6-10.5.3-3.5.9-6.8 1.2-7.3.3-.6.6-9.8.8-20.5.2-22.1-1.2-36.8-5.2-55-.8-3.6-1.7-7.6-2-8.9-.2-1.3-2.2-7.6-4.3-14-13.1-39.6-32.3-69.7-65.3-102-26-25.5-36.8-40.6-46.1-64.2-12.9-32.8-13.6-73.7-1.8-109 3.4-10 10.1-25.2 13.8-31.2l2.3-3.7-2.6-2.6c-1.3-1.4-2.6-2.5-2.8-2.5-.1 0-3.7 2.4-7.9 5.3z"/><path d="M332 447.3c-1.4.8-2.3 2-2.2 2.8.2.8.5 6.5.7 12.7.2 9.6-.8 20.5-3 31.3-2.4 12.1-10.4 30.3-19.1 43.5-7 10.5-25.6 29.7-36.4 37.6-12.4 9-29.9 18.8-38 21.3-1.4.4-2.9 1.1-3.5 1.5-.5.4-4.3 1.7-8.2 3l-7.3 2.2 7.2 13.6c10.1 19.4 13.1 25 20.9 39.7 3.8 7.2 8.9 16.7 11.2 21.3 2.3 4.5 4.4 8.2 4.7 8.2 1 0 10-6.9 17.1-13 27.4-23.6 50.8-55.4 64.7-87.8 4.8-11.1 9.6-25.6 10.7-32.6.3-1.7.8-3.8 1-4.6 2.1-7.3 2.8-39.5 1.2-51.8-1.4-10.5-6.3-28-10.9-39.2-4.6-11.2-5.8-12.3-10.8-9.7z"/></svg>